<svg xmlns="http://www.w3.org/2000/svg" viewBox="0 0 1024 1024" role="img" aria-labelledby="title desc">
  <title id="title">AS monogram logo for Alexis Sanchez Leal</title>
  <desc id="desc">Flat vector icon-only AS monogram in dark navy and warm yellow with subtle circuit node accents.</desc>

  <!-- Transparent background -->
  <g fill="none" fill-rule="evenodd">
    <!-- Palette -->
    <!-- Dark navy: #06182B | Warm yellow: #FFC300 | White/negative: transparent -->

    <!-- Left automation node -->
    <path d="M148 499 H282" stroke="#06182B" stroke-width="34" stroke-linecap="square"/>
    <circle cx="138" cy="499" r="46" fill="#06182B"/>
    <circle cx="138" cy="499" r="20" fill="transparent"/>

    <!-- Main A body -->
    <path fill="#06182B" d="
      M95 808
      L402 166
      L497 337
      L446 388
      L402 302
      L183 808
      Z"/>

    <!-- A internal/right leg integration -->
    <path fill="#06182B" d="
      M352 603
      L481 603
      L596 696
      L465 696
      L421 616
      L333 616
      Z"/>

    <!-- Upper S stroke -->
    <path fill="#06182B" d="
      M486 347
      C518 329 562 321 612 321
      H878
      L828 401
      H594
      C566 401 548 410 541 425
      C534 440 540 455 557 467
      C574 479 603 485 645 485
      H772
      C844 485 891 516 911 575
      C924 615 913 659 880 696
      C845 736 791 756 719 756
      H414
      L466 676
      H723
      C762 676 788 669 802 656
      C815 643 816 626 805 613
      C793 598 767 591 728 591
      H603
      C531 591 481 563 454 507
      C430 456 441 390 486 347
      Z"/>

    <!-- Warm yellow lower S accent -->
    <path fill="#FFC300" d="
      M720 591
      H812
      C873 591 922 641 922 704
      C922 769 870 808 798 808
      H412
      L464 728
      H790
      C824 728 846 717 855 696
      C866 671 852 643 822 629
      C800 618 769 612 720 612
      Z"/>

    <!-- Right automation node -->
    <path d="M803 766 H902" stroke="#FFC300" stroke-width="34" stroke-linecap="square"/>
    <circle cx="926" cy="766" r="46" fill="#FFC300"/>
    <circle cx="926" cy="766" r="20" fill="transparent"/>
  </g>
</svg>
